<svg id="equFGTCZRym1" xmlns="http://www.w3.org/2000/svg" xmlns:xlink="http://www.w3.org/1999/xlink" viewBox="0 0 300 300" shape-rendering="geometricPrecision" text-rendering="geometricPrecision" project-id="791ef542144f4ee4bf710a238a91db5a" export-id="28c180324bc74149b605a87cde2ab2ff" cached="false"><line x1="0" y1="17.294118" x2="0" y2="-17.294117" transform="translate(98.845875 195.222223)" fill="none" stroke="#2563eb" stroke-width="3"/><line x1="-18.705882" y1="0" x2="18.705882" y2="0" transform="translate(117.551757 177.928106)" fill="none" stroke="#2563eb" stroke-width="3"/><line x1="0" y1="15.529412" x2="0" y2="-15.529413" transform="translate(136.257639 161.565985)" fill="none" stroke="#2563eb" stroke-width="3"/><line x1="-16.235294" y1="0" x2="16.235294" y2="0" transform="translate(152.492933 146.869281)" fill="none" stroke="#2563eb" stroke-width="3"/><line x1="0" y1="15.882353" x2="0" y2="-15.882353" transform="translate(167.247856 131.692811)" fill="none" stroke="#2563eb" stroke-width="3"/><line x1="-17.647059" y1="0" x2="17.647059" y2="0" transform="translate(183.507066 117.325132)" fill="none" stroke="#2563eb" stroke-width="3"/><line x1="-3" y1="23.470589" x2="2.999999" y2="-23.470589" transform="translate(120.551757 154.457517)" fill="none" stroke="#2563eb" stroke-width="3"/><line x1="-8.82353" y1="3.352941" x2="8.82353" y2="-3.352941" transform="translate(132.375286 127.633987)" fill="none" stroke="#2563eb" stroke-width="3"/><line x1="-2.117646" y1="-11.294117" x2="2.117647" y2="11.294117" transform="translate(141.743568 134.742455)" fill="none" stroke="#2563eb" stroke-width="3"/><line x1="0" y1="18.176471" x2="0" y2="-18.176471" transform="matrix(-1 0 0 0.708742 124.43411 118.1045)" fill="none" stroke="#2563eb" stroke-width="3"/><ellipse rx="12.882353" ry="13.058823" transform="matrix(.77017 0 0 0.726276 123.375291 96.967969)" fill="#2563eb" stroke-width="0"/><line x1="-5.911765" y1="-2.735295" x2="5.911764" y2="2.735294" transform="translate(130.345875 113.075164)" fill="none" stroke="#2563eb" stroke-width="3"/><line x1="3.617647" y1="-8.470589" x2="-3.617647" y2="8.470589" transform="translate(119.757639 118.1045)" fill="none" stroke="#2563eb" stroke-width="3"/><line x1="-0.352941" y1="-5.647059" x2="0.352941" y2="5.647059" transform="translate(116.492933 131.692811)" fill="none" stroke="#2563eb" stroke-width="3"/><line x1="-3.801788" y1="2.735295" x2="3.801788" y2="-2.735294" transform="translate(139.625922 112.369205)" fill="none" stroke="#2563eb" stroke-width="3"/><line x1="-16.764705" y1="0" x2="16.764705" y2="0" transform="matrix(.461305 0 0 1 115.610581 137.33987)" fill="none" stroke="#2563eb" stroke-width="3"/><line x1="0" y1="-2.044815" x2="0" y2="2.044815" transform="translate(107.876939 139.384686)" fill="none" stroke="#2563eb" stroke-width="3"/><line x1="0" y1="-2.044815" x2="0" y2="2.044815" transform="translate(123.344223 139.384686)" fill="none" stroke="#2563eb" stroke-width="3"/><rect width="33.529411" height="20.136484" rx="0" ry="0" transform="translate(98.845876 141.429501)" fill="#2563eb" stroke-width="0"/><line x1="0" y1="27.823282" x2="0" y2="-27.823281" transform="translate(177.771012 87.281219)" fill="none" stroke="#2563eb" stroke-width="3"/><line x1="-11.691556" y1="-6.456839" x2="11.691556" y2="6.456839" transform="translate(189.462569 65.914776)" fill="none" stroke="#2563eb" stroke-width="3"/><line x1="11.691556" y1="-4.757671" x2="-11.691556" y2="4.75767" transform="translate(189.462569 77.129286)" fill="none" stroke="#2563eb" stroke-width="3"/></svg>
